<?xml version="1.0" encoding="UTF-8"?>
<svg width="128" height="128" viewBox="0 0 128 128" xmlns="http://www.w3.org/2000/svg">
  <defs>
    <linearGradient id="grad3" x1="0%" y1="0%" x2="100%" y2="100%">
      <stop offset="0%" style="stop-color:#9D6FFF;stop-opacity:1" />
      <stop offset="100%" style="stop-color:#512BD4;stop-opacity:1" />
    </linearGradient>
  </defs>

  <!-- Connection lines -->
  <line x1="64" y1="64" x2="64" y2="20" stroke="#7B3FF2" stroke-width="2" opacity="0.5"/>
  <line x1="64" y1="64" x2="102" y2="42" stroke="#7B3FF2" stroke-width="2" opacity="0.5"/>
  <line x1="64" y1="64" x2="102" y2="86" stroke="#7B3FF2" stroke-width="2" opacity="0.5"/>
  <line x1="64" y1="64" x2="64" y2="108" stroke="#7B3FF2" stroke-width="2" opacity="0.5"/>
  <line x1="64" y1="64" x2="26" y2="86" stroke="#7B3FF2" stroke-width="2" opacity="0.5"/>
  <line x1="64" y1="64" x2="26" y2="42" stroke="#7B3FF2" stroke-width="2" opacity="0.5"/>

  <!-- Outer hexagons -->
  <g transform="translate(64, 20)">
    <path d="M 0,-8 L 7,-4 L 7,4 L 0,8 L -7,4 L -7,-4 Z" fill="#7B3FF2" opacity="0.7"/>
  </g>
  <g transform="translate(102, 42)">
    <path d="M 0,-8 L 7,-4 L 7,4 L 0,8 L -7,4 L -7,-4 Z" fill="#7B3FF2" opacity="0.7"/>
  </g>
  <g transform="translate(102, 86)">
    <path d="M 0,-8 L 7,-4 L 7,4 L 0,8 L -7,4 L -7,-4 Z" fill="#7B3FF2" opacity="0.7"/>
  </g>
  <g transform="translate(64, 108)">
    <path d="M 0,-8 L 7,-4 L 7,4 L 0,8 L -7,4 L -7,-4 Z" fill="#7B3FF2" opacity="0.7"/>
  </g>
  <g transform="translate(26, 86)">
    <path d="M 0,-8 L 7,-4 L 7,4 L 0,8 L -7,4 L -7,-4 Z" fill="#7B3FF2" opacity="0.7"/>
  </g>
  <g transform="translate(26, 42)">
    <path d="M 0,-8 L 7,-4 L 7,4 L 0,8 L -7,4 L -7,-4 Z" fill="#7B3FF2" opacity="0.7"/>
  </g>

  <!-- Center hexagon (larger, gradient) -->
  <g transform="translate(64, 64)">
    <path d="M 0,-16 L 14,-8 L 14,8 L 0,16 L -14,8 L -14,-8 Z" fill="url(#grad3)"/>
    <path d="M 0,-12 L 10,-6 L 10,6 L 0,12 L -10,6 L -10,-6 Z" fill="#FFFFFF" opacity="0.2"/>
  </g>
</svg>
